HIERARCHY
ROOT Hips
{
	OFFSET -14.64140 90.27770 -84.91600
	CHANNELS 6 Xposition Yposition Zposition Zrotation Xrotation Yrotation
	JOINT Spine
	{
		OFFSET 0.00000 13.20850 -1.60436
		CHANNELS 3 Zrotation Xrotation Yrotation
		JOINT Spine1
		{
			OFFSET 0.00000 8.61716 0.00000
			CHANNELS 3 Zrotation Xrotation Yrotation
			JOINT Spine2
			{
				OFFSET 0.00000 8.61717 0.00000
				CHANNELS 3 Zrotation Xrotation Yrotation
				JOINT Spine3
				{
					OFFSET 0.00000 8.61717 0.00000
					CHANNELS 3 Zrotation Xrotation Yrotation
					JOINT Neck
					{
						OFFSET 0.00000 11.07920 1.10792
						CHANNELS 3 Zrotation Xrotation Yrotation
						JOINT Neck1
						{
							OFFSET 0.00000 7.08032 0.00000
							CHANNELS 3 Zrotation Xrotation Yrotation
							JOINT Head
							{
								OFFSET 0.00000 7.08031 0.00000
								CHANNELS 3 Zrotation Xrotation Yrotation
								End site
								{
									OFFSET 0.00000 0.00000 0.00000
								}
							}
						}
					}
					JOINT RightShoulder
					{
						OFFSET -0.01000 7.91373 5.19711
						CHANNELS 3 Zrotation Xrotation Yrotation
						JOINT RightArm
						{
							OFFSET -18.41580 0.00000 0.00000
							CHANNELS 3 Zrotation Xrotation Yrotation
							JOINT RightForeArm
							{
								OFFSET -29.11090 0.00000 0.00000
								CHANNELS 3 Zrotation Xrotation Yrotation
								JOINT RightHand
								{
									OFFSET -24.65040 0.00000 0.00000
									CHANNELS 3 Zrotation Xrotation Yrotation
									JOINT RightHandThumb1
									{
										OFFSET -5.35114 -0.85590 3.97906
										CHANNELS 3 Zrotation Xrotation Yrotation
										JOINT RightHandThumb2
										{
											OFFSET -4.52789 0.00000 0.00000
											CHANNELS 3 Zrotation Xrotation Yrotation
											JOINT RightHandThumb3
											{
												OFFSET -2.46976 0.00000 0.00000
												CHANNELS 3 Zrotation Xrotation Yrotation
												End site
												{
													OFFSET 0.00000 0.00000 0.00000
												}
											}
										}
									}
									JOINT RightHandIndex1
									{
										OFFSET -14.26970 0.00000 2.88139
										CHANNELS 3 Zrotation Xrotation Yrotation
										JOINT RightHandIndex2
										{
											OFFSET -5.48836 0.00000 0.00000
											CHANNELS 3 Zrotation Xrotation Yrotation
											JOINT RightHandIndex3
											{
												OFFSET -3.01859 0.00000 0.00000
												CHANNELS 3 Zrotation Xrotation Yrotation
												End site
												{
													OFFSET 0.00000 0.00000 0.00000
												}
											}
										}
									}
									JOINT RightHandMiddle1
									{
										OFFSET -14.26970 0.00000 -0.09147
										CHANNELS 3 Zrotation Xrotation Yrotation
										JOINT RightHandMiddle2
										{
											OFFSET -6.17441 0.00000 0.00000
											CHANNELS 3 Zrotation Xrotation Yrotation
											JOINT RightHandMiddle3
											{
												OFFSET -3.56743 0.00000 0.00000
												CHANNELS 3 Zrotation Xrotation Yrotation
												End site
												{
													OFFSET 0.00000 0.00000 0.00000
												}
											}
										}
									}
									JOINT RightHandRing1
									{
										OFFSET -12.69180 0.00000 -3.06433
										CHANNELS 3 Zrotation Xrotation Yrotation
										JOINT RightHandRing2
										{
											OFFSET -5.62556 0.00000 0.00000
											CHANNELS 3 Zrotation Xrotation Yrotation
											JOINT RightHandRing3
											{
												OFFSET -3.56744 0.00000 0.00000
												CHANNELS 3 Zrotation Xrotation Yrotation
												End site
												{
													OFFSET 0.00000 0.00000 0.00000
												}
											}
										}
									}
									JOINT RightHandPinky1
									{
										OFFSET -11.11390 0.00000 -6.03719
										CHANNELS 3 Zrotation Xrotation Yrotation
										JOINT RightHandPinky2
										{
											OFFSET -4.52789 0.00000 0.00000
											CHANNELS 3 Zrotation Xrotation Yrotation
											JOINT RightHandPinky3
											{
												OFFSET -2.46976 0.00000 0.00000
												CHANNELS 3 Zrotation Xrotation Yrotation
												End site
												{
													OFFSET 0.00000 0.00000 0.00000
												}
											}
										}
									}
								}
							}
						}
					}
					JOINT LeftShoulder
					{
						OFFSET 0.01000 7.91373 5.19711
						CHANNELS 3 Zrotation Xrotation Yrotation
						JOINT LeftArm
						{
							OFFSET 18.41580 0.00000 0.00000
							CHANNELS 3 Zrotation Xrotation Yrotation
							JOINT LeftForeArm
							{
								OFFSET 29.11090 0.00000 0.00000
								CHANNELS 3 Zrotation Xrotation Yrotation
								JOINT LeftHand
								{
									OFFSET 24.65040 0.00000 0.00000
									CHANNELS 3 Zrotation Xrotation Yrotation
									JOINT LeftHandThumb1
									{
										OFFSET 5.35114 -0.85590 3.97906
										CHANNELS 3 Zrotation Xrotation Yrotation
										JOINT LeftHandThumb2
										{
											OFFSET 4.52789 0.00000 0.00000
											CHANNELS 3 Zrotation Xrotation Yrotation
											JOINT LeftHandThumb3
											{
												OFFSET 2.46977 0.00000 0.00000
												CHANNELS 3 Zrotation Xrotation Yrotation
												End site
												{
													OFFSET 0.00000 0.00000 0.00000
												}
											}
										}
									}
									JOINT LeftHandIndex1
									{
										OFFSET 14.26970 0.00000 2.88139
										CHANNELS 3 Zrotation Xrotation Yrotation
										JOINT LeftHandIndex2
										{
											OFFSET 5.48836 0.00000 0.00000
											CHANNELS 3 Zrotation Xrotation Yrotation
											JOINT LeftHandIndex3
											{
												OFFSET 3.01859 0.00000 0.00000
												CHANNELS 3 Zrotation Xrotation Yrotation
												End site
												{
													OFFSET 0.00000 0.00000 0.00000
												}
											}
										}
									}
									JOINT LeftHandMiddle1
									{
										OFFSET 14.26970 0.00000 -0.09147
										CHANNELS 3 Zrotation Xrotation Yrotation
										JOINT LeftHandMiddle2
										{
											OFFSET 6.17440 0.00000 0.00000
											CHANNELS 3 Zrotation Xrotation Yrotation
											JOINT LeftHandMiddle3
											{
												OFFSET 3.56744 0.00000 0.00000
												CHANNELS 3 Zrotation Xrotation Yrotation
												End site
												{
													OFFSET 0.00000 0.00000 0.00000
												}
											}
										}
									}
									JOINT LeftHandRing1
									{
										OFFSET 12.69180 0.00000 -3.06433
										CHANNELS 3 Zrotation Xrotation Yrotation
										JOINT LeftHandRing2
										{
											OFFSET 5.62556 0.00000 0.00000
											CHANNELS 3 Zrotation Xrotation Yrotation
											JOINT LeftHandRing3
											{
												OFFSET 3.56744 0.00000 0.00000
												CHANNELS 3 Zrotation Xrotation Yrotation
												End site
												{
													OFFSET 0.00000 0.00000 0.00000
												}
											}
										}
									}
									JOINT LeftHandPinky1
									{
										OFFSET 11.11390 0.00000 -6.03719
										CHANNELS 3 Zrotation Xrotation Yrotation
										JOINT LeftHandPinky2
										{
											OFFSET 4.52789 0.00000 0.00000
											CHANNELS 3 Zrotation Xrotation Yrotation
											JOINT LeftHandPinky3
											{
												OFFSET 2.46976 0.00000 0.00000
												CHANNELS 3 Zrotation Xrotation Yrotation
												End site
												{
													OFFSET 0.00000 0.00000 0.00000
												}
											}
										}
									}
								}
							}
						}
					}
					JOINT pCube4
					{
						OFFSET 0.00000 10.91090 1.10792
						CHANNELS 3 Zrotation Xrotation Yrotation
						End site
						{
							OFFSET 0.00000 0.00000 0.00000
						}
					}
				}
			}
		}
	}
	JOINT RightUpLeg
	{
		OFFSET -9.98441 0.00000 0.00000
		CHANNELS 3 Zrotation Xrotation Yrotation
		JOINT RightLeg
		{
			OFFSET 0.00000 -42.11790 0.00000
			CHANNELS 3 Zrotation Xrotation Yrotation
			JOINT RightFoot
			{
				OFFSET 0.00000 -45.00020 -0.00001
				CHANNELS 3 Zrotation Xrotation Yrotation
				JOINT RightForeFoot
				{
					OFFSET 0.00000 -3.74820 0.00000
					CHANNELS 3 Zrotation Xrotation Yrotation
					JOINT RightToeBase
					{
						OFFSET 0.00000 0.06325 14.43120
						CHANNELS 3 Zrotation Xrotation Yrotation
						End site
						{
							OFFSET 0.00000 0.00000 0.00000
						}
					}
				}
			}
		}
	}
	JOINT LeftUpLeg
	{
		OFFSET 9.98441 0.00000 0.00000
		CHANNELS 3 Zrotation Xrotation Yrotation
		JOINT LeftLeg
		{
			OFFSET 0.00000 -42.11800 0.00000
			CHANNELS 3 Zrotation Xrotation Yrotation
			JOINT LeftFoot
			{
				OFFSET 0.00000 -45.00070 0.00000
				CHANNELS 3 Zrotation Xrotation Yrotation
				JOINT LeftForeFoot
				{
					OFFSET 0.00000 -3.74824 0.00000
					CHANNELS 3 Zrotation Xrotation Yrotation
					JOINT LeftToeBase
					{
						OFFSET 0.00000 0.06325 14.43110
						CHANNELS 3 Zrotation Xrotation Yrotation
						End site
						{
							OFFSET 0.00000 0.00000 0.00000
						}
					}
				}
			}
		}
	}
}
MOTION
Frames: 4
Frame Time: 0.050000
0.03634577119058718 0.005091245690211262 0.0005408296326979161 0.0007628894567919542 0.03298018597726992 0.04739148167371412 -1.2777962361847437 1.3343252352593993 -1.0405397261083698 -0.39382390642500076 3.9461725403615575 0.3129727488262354 -0.797362148854754 -1.9079135504812472 1.9553946185934337 -1.3630181325403994 -0.9066855159796943 -0.25962683213098214 -0.19591092983165512 14.91002411506572 1.0460137443208253 0.6132672545106287 -0.2564694955135568 0.7246105958534685 0.46696554423643577 -15.214463858605408 -0.007886047598442785 -4.614837721394419 1.79415385551713 -13.696080110003496 69.06584183430708 -1.3598039804505917 47.3062809926207 9.371754489174478 6.003995687811534 109.82302271877883 18.994747166345356 -0.5905284053831151 -0.9352940157394044 4.554605415208632 -0.12423091610646257 -1.6080852449277487 -0.004269021201788726 -0.00967253930404673 -56.203111668606375 0.029833970445031114 -0.00019024625912780773 -56.247330055456345 -38.803618480570265 -0.03688196954506379 0.04268727653209887 -0.010189547269896024 -0.016714815041954257 -0.046330996827214636 -0.013823402614293974 -0.006209970342868939 0.04060601901840465 -36.69269150623017 -0.0296774915247991 0.01696700816393639 0.009554742124523175 0.004460055896130125 -0.043742658716057314 0.030334179556211194 0.03790792096662264 0.009998633212518456 -19.73068667012509 -0.02177298237154355 -0.02852288868271328 0.02024506281415288 0.041261016912509184 0.0486218362675482 0.0037229243118136707 -0.02260664618092569 0.042292229876623205 24.064814859738163 -0.03534633592360836 -0.026544743253971426 28.817805111207893 0.03514416930965865 0.04258503246805327 28.885003446151952 -0.01631463455724847 0.006618257832508483 5.387671893254209 1.3898328058521838 13.442289204526118 -70.68621337000985 17.04066491078132 -25.243907729964405 0.3949541106266266 -3.153229984001474 -97.95541246353287 -18.75548632063676 8.853900855663213 -7.984028210361145 -0.5108787864874504 0.06054834553441594 -8.082334104199097 0.025058904730639483 0.0013278890616235071 44.57248780933248 -0.0030126857802017775 0.01822651982432956 44.60610297211231 12.43821014776967 -0.0045201764144028635 -0.027275253624798126 0.014057189461379807 -0.004717852939214343 -0.038890136280101184 -0.0013446591000086019 -0.04174848482502356 0.028682909543360176 11.130329676222463 -0.015394224046666826 -0.022551645350004753 0.029605887318918177 0.047563744294459455 0.020615883870620834 -0.018727840194093993 0.004055212581684041 0.04259476018330683 4.765686046115925 -0.04416117232686973 -0.020206268543015566 0.04014370710599111 -0.0047740256754356435 -0.004094252511958819 0.03569032104423788 0.026060700777294242 0.0006364591497198002 -5.581336487516507 0.040097407217421624 -0.03271986267508987 -6.676442353157758 -0.027393174783178896 -0.003316154596359191 -6.6735075865439 0.013223926715732052 -0.020248111002014603 -0.017471792041845718 -0.048448492812738074 -0.04093556412907255 8.021699008935942 3.5389417545051467 -19.264355069154238 0.0385046150455507 10.3754762986848 0.029154435180504982 -5.666715744372805 -15.637943995553101 3.183895594397107 0.03854328792912103 0.0013008405914711595 -0.0031919811946232663 -0.047292756060547246 4.742029808458254 -0.03734344302371985 12.429792428331949 -8.234639518102108 6.883245088245131 0.021687445687325647 46.36612511236135 0.020215574114745834 -4.3131637431313825 -14.700710772194075 -3.8626294446898504 -0.029224863970282993 -0.03972788768809825 -0.0035884559405136803 0.006155503127614137 -10.75544201068103 -0.02657061288388425 
-0.02668861047368809 0.01968059237302374 -0.022040629363403688 0.0153329778992427 0.0013621377541668863 -0.019759635961771597 -1.4058292462860607 1.2572608622279602 -0.9633867626844796 -0.44631976939903545 4.012455403440649 0.36773331814678945 -0.7612607070623161 -1.9267202338125013 1.8593905583196926 -1.3764503343831866 -0.822546421029185 -0.3316567511015956 -0.23786927097401345 15.131441272479492 1.1800871011220175 0.5956229583437694 -0.317257902598975 1.2477308678063748 0.43265040418783984 -15.42789875423612 0.05344540097497613 -4.484534818689722 1.7375374342335237 -13.728578668495604 69.58477654613537 -0.3840187725216444 47.21573440071545 8.535596277343247 5.665146255194052 111.01789316708212 18.918779404980487 -0.5083648565048787 -0.9840008199386403 4.480873438712894 -0.10613417732756447 -1.624313566155841 0.001318591672868997 0.014542096160182918 -56.21338903476679 0.00016533595315781986 -0.024607797517548463 -56.19659721573178 -38.78807215986823 -0.02049820960412028 0.0037777839688308665 0.02343761944526566 0.0316264449878082 -0.006890274456104487 -0.04113411776742296 -0.0011798031672695445 0.017247893399719785 -36.7356614225493 -0.011515230013293819 0.028221603447084145 -0.009738582028390627 -0.02427600670071009 -0.024722730529187935 0.031130997085674905 -0.011470620749981363 -0.00943700133392039 -19.771367713552415 0.03054155316681295 0.017952358027310253 0.021452988047988595 0.03150021492246994 -0.025758292228552474 0.013666950331547894 0.03741551837586773 0.02688499389207631 24.052630761388787 -0.0026033470453208593 0.006946082516927696 28.90158232928993 -0.02769600232159912 -0.010021589371578656 28.862204994357725 0.0012694406686124843 0.011279912039092505 5.623173754849485 1.4270873150334666 13.438341001889917 -70.46098070089276 17.756856085165545 -27.082508806342787 2.966454017229947 -4.188920985983617 -101.06573705872849 -18.259457716939018 8.961193945823867 -8.095755474840951 -0.4838660166705902 0.04025419028689886 -8.106969936977332 0.04529315073244119 0.014630541604524499 44.595103079053104 -0.0034201035097310988 0.021425091955744983 44.57200209799794 12.42440115921763 0.04666160159620496 0.030052634243836997 -0.014955453623808134 -0.008484206438947288 -0.0005315458810024498 0.024143244899786007 0.016478207046400187 0.03235836883149724 11.11304353520124 -0.025986948357541062 0.045683255212973325 0.0308447465987643 0.01211920960482397 0.028494485189184973 0.003062905298377682 0.00720692677595517 0.0075720300260961534 4.739953455152529 0.021704838334207843 0.020735786338470456 -0.0017792129943737943 -0.03601149137818515 0.04343025957240439 -0.002229456862332194 -0.012402587718034723 -0.04669636886653616 -5.602425367848442 0.029450863671780302 0.008480678805100443 -6.767993520265811 -0.03358730677642505 -0.017955507917722983 -6.707050870582153 -0.04472507069473612 0.02257266510784874 -0.03995709910437181 -0.0319076202449166 0.006353322455193321 8.043773823019192 3.5246857661911264 -19.263322491938492 -0.004918272615066841 10.420429480656715 0.04314035076628815 -5.6509506815115085 -15.63314104416086 3.1936398100101373 -0.030330436166647358 0.018044238136281116 0.04152625947557859 0.04555555182078671 4.702819700426772 0.01411573022502819 12.482931267799097 -8.222433555187111 6.932989168367104 -0.02192065195423639 46.33473037896752 0.011499180231308501 -4.31113358865923 -14.708943657178253 -3.8367684661959953 0.026851183151395366 -0.045017061098110794 0.005400206663799361 0.02143689868866475 -10.771911413072415 -0.0036355051680723137 
-0.0024719732812967634 -0.0029820025013783794 0.02281210626749189 -0.013856425357972392 0.019345332100436298 -0.04806023439006593 -1.3923909518541064 1.2351317857586366 -0.9790412573844748 -0.45460122903553646 4.0048492751629 0.3072499496732025 -0.7923801640208905 -1.9311749841022836 1.680477553249342 -1.3974797870878335 -0.862437063235036 -0.2939844708140249 -0.33792503237819443 15.355782536776152 1.2122826015945551 0.6068722157170574 -0.33176872280152436 1.441846062834391 0.38866922553839406 -15.537273040610238 0.051714685069557995 -4.473671419517839 1.6450153981831577 -13.707474303766391 70.31635236762565 0.35694749292824574 47.31290510098151 7.508625673501364 5.2666281220286235 112.47546785848412 18.600852256843933 -0.5514704102251645 -0.9954890873367168 4.5008789456243985 -0.10579258177108085 -1.6285676330112022 0.0007860359101739867 0.00023963468629234488 -56.18736259104535 0.04104154263856525 0.0397321977637171 -56.2436165077027 -38.75876281768143 0.0014081097041672528 -0.04260179069664689 -0.027668381333358003 0.002741939359644498 0.003749460315045606 0.038954569436130744 0.04367116303587017 0.02803143264330953 -36.68166194312873 -0.013710134438792404 -0.0034378857663791575 0.01474121378805935 0.04273879770359547 0.02783269059895857 0.026902746326796283 -0.027284852438009332 0.02929005056652979 -19.772382162505167 0.03752666485489526 -0.03594151620055052 0.019365877815206132 -0.010319745424616953 -0.02717523670569251 -0.015122834715237966 -0.010787751837362343 -0.011727910910922143 24.086156890785638 -0.018456903556123554 -0.020162104419444278 28.822072130328095 -0.019267979445210377 -0.01929980715075352 28.90173977889915 -0.036720810727382716 -0.015163046022754091 5.9234918632271025 1.43742974653685 13.461117146450558 -70.21219427168124 18.327169305285953 -28.618579488150516 5.099628549044405 -5.087331599445833 -103.6945916461125 -17.49697970566339 8.83400675050949 -8.095928999474477 -0.4576887571286612 0.05367962868993283 -8.137625741144637 0.003644414617016138 0.027266086131496125 44.526789308201835 0.010588893858208458 -0.023451590635155485 44.55365583851998 12.500553490939733 -0.020864013183762922 0.005570425261484178 -0.02427541800214316 0.040859071727425214 -0.029999228796581106 -0.04130802329489355 -0.02326827832904271 -0.009979486169925585 11.136537170341251 -0.020942974471813414 -0.011591330985426737 0.004582016700083195 -0.022045211447230356 -0.009660535351992126 0.02345162347127297 0.02367962354533478 -0.020651654778180806 4.729612522709652 -0.04629024149224836 0.01606986923675662 0.0027702369959845094 0.032540362992507114 -0.008571539647608078 0.003207932999045243 0.04067378665974992 0.03606055326138973 -5.553742900079352 0.02125802002748669 0.009981778259487394 -6.751792063825487 0.04046209050751132 -0.020767725861022778 -6.750113599724205 0.03851071528669404 0.02078501677833046 0.0022830193316672655 -0.006140499607721118 0.02401794208828325 8.059637989152288 3.524773366774286 -19.225114224304026 -0.00933623233929758 10.421045194869698 -0.0348683767094313 -5.6345342008453025 -15.707679225097545 3.1999809461099424 0.022137997066535017 0.03134484344491196 0.007022301856655039 -0.02890204680763513 4.660134651769501 0.03434699095990293 12.419903730547363 -8.263750136653753 6.930009883644498 0.012623691270454904 46.35846889310344 -0.03659147739732857 -4.3289525041031665 -14.717256080441809 -3.884408045830753 -0.02416017459543139 0.041772268486150406 -0.03886612799073428 0.024305914312057357 -10.78403450569526 0.031967056315869616 
0.01131307694816428 -0.0013180267276357233 -0.001415792381108858 0.004844861453721533 0.02421883169669007 0.03453209434680834 -1.4330373652012982 1.141961619823484 -1.0220669815547705 -0.4401504777351409 4.014298613215579 0.28619167614174873 -0.8114468106885012 -1.998997540824333 1.6674682094991304 -1.3450817735171736 -0.7706908272441075 -0.3280488572410636 -0.3477167069109744 15.57062827425639 1.2768420823876125 0.5757269017340786 -0.3752089976491956 1.6461227727772112 0.41314774901804746 -15.653465564838864 0.04051771058275024 -4.463288509494634 1.6826935872464606 -13.792259764710204 70.64554595046059 1.8703309706776479 47.5363120693288 6.25509490875629 4.709246622298219 113.72961694511767 18.2570197141434 -0.5114606357382323 -0.9302241643572987 4.546308587835919 -0.10906205867943239 -1.6030202777093783 -0.005209430169022182 0.030177144057122754 -56.22213692132555 -0.012300012441526469 0.01649465474026245 -56.22611482437366 -38.771420515680596 0.005304855062102579 0.018679783221092382 0.02631079851521572 -0.042683381196393574 -0.012501220828137238 0.01154755107399942 0.02342265461673574 0.006114738811632322 -36.67152655489406 0.007721344143499559 -0.012989977565754759 -0.03743233808677494 -0.04500990048049857 0.009298195069687092 0.016653807051921665 -0.04139888375018002 0.011863587894611083 -19.7293125415657 -0.030856318805692024 0.02537742457321614 -0.0008031874982813869 -0.044101557713142614 0.04535473447917272 0.008974659899266041 0.018481364122012046 0.005570234770821929 24.006853507529613 -0.023209156306355942 0.04151829109921617 28.897876945772406 0.03853837971239199 -0.0020787544380338756 28.839519343986392 0.017990537349364785 0.008111561672782201 6.269163271278568 1.4811383681832944 13.480312577566359 -70.10280446914356 18.905774524686798 -30.259121105853417 6.488504492897589 -5.60049079373405 -105.69866042325833 -16.81751606278471 8.495177290703333 -7.812217251851698 -0.4718865157036436 0.06944038527248853 -8.129640783945645 0.019699193540981468 -0.042577728545370085 44.53356769762483 0.03229283644573898 0.014375613831846795 44.59077799969422 12.469542404013502 0.0037693641876129663 -0.025889150737902142 -0.02748012892198786 -0.022021786241764128 -0.01178797916087685 -0.018881507539432713 -0.019105633378307542 -0.027321351472129867 11.079643330768457 -0.0009970703666220737 0.03560215001116904 -0.026250015845041642 -0.010531543650138126 -0.00235173998096716 0.02578984479528388 0.01261131773983435 -0.001456355502386284 4.766013820214755 0.03924563562246126 -0.03425196694328165 0.01593619704871329 0.012536921519910087 0.04014554460664197 -0.011518223572449934 -0.029012576439956615 -0.004648241654959596 -5.552707992942713 0.03362220017765417 0.01930977013854421 -6.748559582738179 0.0415037444258013 -0.00021015824601584341 -6.686932067906322 -0.01690646854746937 -0.04519356412508305 -0.03656573061356154 -0.023075037517824797 -0.041354251843618475 8.001787109332257 3.543963351876786 -19.172288979810492 0.04206925466978023 10.387909694503977 -0.02475520999503229 -5.596781884859535 -15.661858869856722 3.2175912824932817 -0.036532548439843306 0.040993045975952005 0.0058326664349476745 -0.02401830644558809 4.717724017477394 -0.018405708925001426 12.47891662904806 -8.269725092599273 6.878201795085579 0.02133189435841638 46.34814734038494 -0.01071269472838686 -4.315678528864615 -14.768547956368048 -3.8061215665861665 -0.018341605796316378 0.0012225660781332217 -0.034586928686318685 -0.02033137046359001 -10.720590876548057 -0.027910671360007203 
